<?xml version="1.0" encoding="utf-8"?>
<!-- Svg Vector Icons : http://www.onlinewebfonts.com/icon -->
<!DOCTYPE svg PUBLIC "-//W3C//DTD SVG 1.1//EN" "http://www.w3.org/Graphics/SVG/1.1/DTD/svg11.dtd">
<svg version="1.1" xmlns="http://www.w3.org/2000/svg" xmlns:xlink="http://www.w3.org/1999/xlink" x="0px" y="0px" viewBox="0 0 256 256" enable-background="new 0 0 256 256" xml:space="preserve">
<metadata> Svg Vector Icons : http://www.onlinewebfonts.com/icon </metadata>
<g><g><path fill="#000000" d="M13.6,224.1c-4.8,5.4-4.8,13.1,0,17.9c5.4,5.4,13.2,5.4,18,0L240,33.8c4.8-4.8,4.8-12.5,0-18c-4.8-4.8-12.6-4.8-18,0L13.6,224.1z"/><path fill="#000000" d="M224.5,239.7c4.8,4.8,13.2,4.8,18,0c4.8-4.8,4.8-12.5,0-17.9L34,13.5c-4.8-4.8-13.2-4.8-18,0c-4.8,5.4-4.8,13.2,0,18L224.5,239.7z"/></g></g>
</svg>